<svg width="212" height="212" viewBox="0 0 212 212" fill="none" xmlns="http://www.w3.org/2000/svg">
<path d="M167.833 88.3333C167.833 100.523 149.107 110.417 136.917 110.417C124.727 110.417 112.625 100.523 112.625 88.3333H99.375C99.375 100.523 87.2733 110.417 75.0833 110.417C62.8933 110.417 44.1666 100.523 44.1666 88.3333H37.5416C36.1283 93.9866 35.3333 99.905 35.3333 106C35.3333 124.742 42.7785 142.716 56.0311 155.969C69.2837 169.221 87.258 176.667 106 176.667C124.742 176.667 142.716 169.221 155.969 155.969C169.221 142.716 176.667 124.742 176.667 106C176.667 99.905 175.872 93.9866 174.458 88.3333H167.833ZM106 35.3333C79.8533 35.3333 56.975 49.555 44.785 70.6666H167.215C155.025 49.555 132.147 35.3333 106 35.3333ZM194.333 106C194.333 129.427 185.027 151.895 168.461 168.461C151.895 185.027 129.427 194.333 106 194.333C94.3999 194.333 82.9134 192.049 72.1963 187.609C61.4792 183.17 51.7414 176.664 43.5389 168.461C26.9731 151.895 17.6666 129.427 17.6666 106C17.6666 82.5725 26.9731 60.1046 43.5389 43.5389C60.1046 26.9731 82.5725 17.6666 106 17.6666C117.6 17.6666 129.087 19.9514 139.804 24.3906C150.521 28.8298 160.259 35.3364 168.461 43.5389C176.664 51.7414 183.17 61.4792 187.609 72.1963C192.049 82.9134 194.333 94.3999 194.333 106ZM106 152.198C90.5416 152.198 76.9383 145.75 68.9883 136.21L81.5316 123.667C85.5066 130.027 94.9583 134.532 106 134.532C117.042 134.532 126.493 130.027 130.468 123.667L143.012 136.21C135.062 145.75 121.458 152.198 106 152.198Z" fill="#F4D35E"/>
</svg>
