<svg width="240" height="212" viewBox="0 0 240 212" fill="none" xmlns="http://www.w3.org/2000/svg">
<path d="M147.475 88.3333C157.131 88.3333 164.968 95.2587 164.968 103.792V145.741C164.968 156.286 160.228 166.399 151.79 173.855C143.353 181.311 131.909 185.5 119.977 185.5C108.045 185.5 96.6017 181.311 88.1644 173.855C79.7271 166.399 74.9871 156.286 74.9871 145.741V103.792C74.9871 95.2587 82.8136 88.3333 92.4794 88.3333H147.475ZM71.2787 88.3333C67.6669 92.1561 65.4999 96.882 65.0814 101.848L64.9815 103.792V145.741C64.9815 153.223 66.9006 160.307 70.3191 166.632C67.0139 167.427 63.5654 167.827 59.9737 167.833C54.7223 167.833 49.5223 166.919 44.6707 165.143C39.8192 163.367 35.4111 160.763 31.6983 157.481C27.9854 154.199 25.0405 150.303 23.0318 146.015C21.0231 141.727 19.9899 137.132 19.9912 132.491V103.792C19.9914 99.9122 21.6422 96.1745 24.616 93.3207C27.5898 90.4669 31.6691 88.7056 36.0442 88.3863L37.4835 88.3333H71.2787ZM168.676 88.3333H202.411C212.067 88.3333 219.903 95.2587 219.903 103.792V132.5C219.905 137.916 218.497 143.26 215.789 148.119C213.081 152.978 209.145 157.222 204.286 160.523C199.427 163.823 193.773 166.092 187.764 167.155C181.754 168.217 175.548 168.044 169.626 166.65C172.624 161.102 174.463 154.99 174.873 148.524L174.963 145.741V103.792C174.963 97.9175 172.614 92.5292 168.676 88.3333ZM119.947 26.5C127.9 26.5 135.528 29.292 141.151 34.2617C146.775 39.2314 149.934 45.9718 149.934 53C149.934 60.0282 146.775 66.7686 141.151 71.7383C135.528 76.708 127.9 79.5 119.947 79.5C111.994 79.5 104.367 76.708 98.7434 71.7383C93.1198 66.7686 89.9605 60.0282 89.9605 53C89.9605 45.9718 93.1198 39.2314 98.7434 34.2617C104.367 29.292 111.994 26.5 119.947 26.5ZM184.919 35.3333C191.546 35.3333 197.902 37.66 202.589 41.8014C207.275 45.9428 209.908 51.5598 209.908 57.4167C209.908 63.2735 207.275 68.8905 202.589 73.0319C197.902 77.1734 191.546 79.5 184.919 79.5C178.291 79.5 171.935 77.1734 167.249 73.0319C162.563 68.8905 159.93 63.2735 159.93 57.4167C159.93 51.5598 162.563 45.9428 167.249 41.8014C171.935 37.66 178.291 35.3333 184.919 35.3333ZM54.9759 35.3333C61.6034 35.3333 67.9594 37.66 72.6458 41.8014C77.3321 45.9428 79.9649 51.5598 79.9649 57.4167C79.9649 63.2735 77.3321 68.8905 72.6458 73.0319C67.9594 77.1734 61.6034 79.5 54.9759 79.5C48.3484 79.5 41.9923 77.1734 37.3059 73.0319C32.6196 68.8905 29.9868 63.2735 29.9868 57.4167C29.9868 51.5598 32.6196 45.9428 37.3059 41.8014C41.9923 37.66 48.3484 35.3333 54.9759 35.3333Z" fill="#F4D35E"/>
</svg>
