<svg width="212" height="212" viewBox="0 0 212 212" fill="none" xmlns="http://www.w3.org/2000/svg">
<path d="M192.531 178.469L153.203 139.125C164.995 123.759 170.5 104.483 168.602 85.2069C166.704 65.9311 157.545 48.0989 142.983 35.3277C128.421 22.5565 109.546 15.8027 90.1871 16.4362C70.8284 17.0698 52.4355 25.0433 38.7395 38.7393C25.0435 52.4353 17.0699 70.8282 16.4364 90.1869C15.8028 109.546 22.5566 128.421 35.3278 142.983C48.099 157.545 65.9312 166.704 85.207 168.602C104.483 170.5 123.759 164.995 139.125 153.203L178.486 192.572C179.41 193.497 180.508 194.23 181.715 194.73C182.923 195.23 184.218 195.488 185.525 195.488C186.832 195.488 188.127 195.23 189.334 194.73C190.542 194.23 191.64 193.497 192.564 192.572C193.488 191.648 194.222 190.55 194.722 189.343C195.222 188.135 195.48 186.84 195.48 185.533C195.48 184.226 195.222 182.931 194.722 181.724C194.222 180.516 193.488 179.418 192.564 178.494L192.531 178.469ZM36.4376 92.75C36.4376 81.6124 39.7403 70.725 45.928 61.4644C52.1157 52.2039 60.9105 44.9862 71.2002 40.724C81.49 36.4618 92.8126 35.3467 103.736 37.5195C114.66 39.6923 124.694 45.0556 132.569 52.931C140.444 60.8065 145.808 70.8404 147.981 81.7639C150.153 92.6875 149.038 104.01 144.776 114.3C140.514 124.59 133.296 133.384 124.036 139.572C114.775 145.76 103.888 149.062 92.7501 149.062C77.8198 149.047 63.5054 143.109 52.9481 132.552C42.3908 121.995 36.4529 107.68 36.4376 92.75Z" fill="#F4D35E"/>
</svg>
