<svg width="171" height="171" viewBox="0 0 171 171" fill="none" xmlns="http://www.w3.org/2000/svg">
<path d="M170.998 85.4366C170.998 100.127 171.008 114.814 170.995 129.504C170.975 150.209 157.394 166.592 137.032 170.386C134.735 170.814 132.356 170.959 130.014 170.962C100.318 170.999 70.6195 171.019 40.9233 170.974C20.6108 170.942 3.84191 156.672 0.518675 136.648C0.155549 134.465 0.0378459 132.218 0.0353416 130.002C0.00278548 100.304 -0.0197534 70.609 0.0253243 40.9137C0.0553762 20.5992 14.3275 3.82581 34.347 0.51269C36.5934 0.142062 38.9049 0.0293709 41.1863 0.0268666C70.7573 -0.000680081 100.326 -0.0106971 129.897 0.0143454C150.365 0.0318751 167.133 14.2084 170.484 34.34C170.88 36.709 170.968 39.1507 170.975 41.5573C171.018 56.1821 170.998 70.8093 170.998 85.4341V85.4366ZM8.12429 85.3039C8.12429 99.9312 8.10425 114.561 8.14683 129.188C8.15184 131.342 8.247 133.531 8.63767 135.642C11.6353 151.894 24.7329 162.838 41.2865 162.863C70.7974 162.908 100.311 162.883 129.822 162.855C131.722 162.855 133.651 162.735 135.516 162.4C151.925 159.43 162.864 146.282 162.879 129.474C162.909 100.154 162.896 70.8344 162.866 41.5122C162.866 39.4863 162.758 37.4253 162.395 35.4369C159.438 19.1718 146.343 8.16065 129.817 8.1306C100.241 8.08052 70.6646 8.08052 41.0911 8.17067C38.0133 8.18069 34.8454 8.61643 31.8803 9.43782C17.6532 13.377 8.20693 25.9984 8.13681 41.0364C8.06919 55.7914 8.12178 70.5464 8.12178 85.3039H8.12429Z" fill="#FFFBF2"/>
<path d="M40.7631 85.4712C40.7806 60.6892 60.7525 40.7354 85.5278 40.7529C110.315 40.7705 130.26 60.7343 130.245 85.5163C130.23 110.293 110.25 130.257 85.4827 130.24C60.7025 130.222 40.7455 110.243 40.7631 85.4712ZM48.867 85.4412C48.847 105.663 65.2453 122.111 85.4501 122.133C105.67 122.156 122.118 105.753 122.141 85.5489C122.163 65.3221 105.77 48.8817 85.5578 48.8617C65.3304 48.8417 48.8871 65.2319 48.867 85.4412Z" fill="#FFFBF2"/>
<path d="M134.297 24.4376C141.054 24.4125 146.558 29.8843 146.563 36.6308C146.568 43.3747 141.066 48.8665 134.322 48.8515C127.663 48.8364 122.196 43.3997 122.151 36.751C122.106 29.992 127.56 24.4626 134.297 24.4376ZM134.327 40.7127C136.551 40.7302 138.462 38.7994 138.421 36.5782C138.381 34.417 136.541 32.5964 134.384 32.5789C132.158 32.5614 130.25 34.4871 130.292 36.7109C130.335 38.8721 132.173 40.6951 134.329 40.7127H134.327Z" fill="#FFFBF2"/>
</svg>
