<svg width="180" height="180" viewBox="0 0 180 180" fill="none" xmlns="http://www.w3.org/2000/svg">
<path d="M180 47.3773C180 44.8702 179.873 42.3709 179.462 39.9086C175.545 16.3584 156.341 0.0395448 132.498 0.0158179C104.173 -0.0105453 75.8482 0.0158179 47.5208 0C44.9506 0 42.3857 0.115998 39.8603 0.540445C16.2252 4.52392 0.0290437 23.7216 0.0132271 47.7385C0.00268278 61.8375 0.0132271 75.9365 0.0132271 90.0329C0.010591 104.132 0.0211354 118.231 4.66973e-05 132.327C-0.00258939 134.961 0.10549 137.592 0.550989 140.178C4.61584 163.858 23.7406 179.974 47.7897 179.984C75.922 179.997 104.054 179.982 132.187 179.997C134.823 179.997 137.451 179.895 140.042 179.47C163.538 175.616 179.96 156.336 179.984 132.541C180.013 104.153 179.984 75.7625 180 47.3747V47.3773ZM172.287 132.81C172.25 154.889 154.952 172.202 132.896 172.286C118.603 172.341 104.31 172.297 90.0172 172.297C75.9167 172.297 61.8163 172.307 47.7159 172.297C27.7976 172.278 12.0127 159.244 8.28263 139.728C7.83713 137.397 7.69479 135.03 7.69479 132.652C7.70533 104.195 7.67633 75.7362 7.7106 47.2797C7.7396 25.0951 25.035 7.75078 47.2018 7.71387C75.7243 7.66642 104.244 7.66905 132.767 7.71387C154.949 7.74814 172.255 25.0635 172.289 47.2481C172.334 75.7704 172.337 104.29 172.289 132.812L172.287 132.81Z" fill="#FFFBF2"/>
<path d="M151.528 95.7459C151.528 95.042 151.533 94.3302 151.425 93.6368C147.898 71.3757 123.672 59.1564 103.704 69.5699C102.249 70.3291 100.862 71.2123 99.3358 72.1007C99.2884 71.7079 99.2409 71.468 99.233 71.2281C99.1065 67.2472 97.9782 66.1585 93.9714 66.1558C86.5376 66.1558 79.1038 66.1479 71.6701 66.1558C68.2695 66.1611 66.9278 67.5214 66.9278 70.9645C66.9225 93.9057 66.9119 116.847 66.933 139.788C66.9409 147.086 72.1129 152.247 79.4017 152.29C84.3365 152.319 89.2712 152.3 94.206 152.295C97.9835 152.292 99.2277 151.022 99.2304 147.178C99.2304 132.694 99.2646 118.213 99.2014 103.731C99.1908 101.061 100.417 99.3919 102.639 98.2425C104.025 97.5254 105.546 97.2617 107.07 97.0508C114.269 96.049 119.238 98.311 119.238 101.983C119.238 105.656 119.22 133.084 119.259 148.396C119.265 150.842 120.925 152.276 123.551 152.287C131.177 152.311 138.803 152.298 146.43 152.295C150.265 152.295 151.538 151.045 151.538 147.265C151.541 130.092 151.538 112.916 151.536 95.7432L151.528 95.7459ZM141.919 144.652C137.501 144.526 133.075 144.539 128.654 144.647C127.157 144.684 126.883 144.196 126.888 142.809C126.938 129.029 126.859 115.249 126.951 101.472C126.983 96.5816 124.803 93.1016 120.498 91.2852C113.468 88.3194 106.216 88.2508 99.233 91.4276C94.148 93.7423 91.4987 97.8918 91.5224 103.66C91.5752 116.541 91.4829 129.425 91.5963 142.306C91.6147 144.341 91.0058 144.742 89.1526 144.65C86.0842 144.497 83.0026 144.615 79.9263 144.605C76.2727 144.592 74.6251 142.973 74.6225 139.353C74.6119 128.779 74.6199 118.202 74.6199 107.628C74.6199 96.9876 74.6515 86.35 74.5856 75.7098C74.575 74.2098 74.9546 73.7695 76.4783 73.8064C80.9623 73.9119 85.4515 73.8829 89.9355 73.8196C91.1455 73.8038 91.6542 74.0727 91.5673 75.3882C91.4539 77.1124 91.5356 78.8471 91.5435 80.5765C91.5541 82.2716 92.2922 83.5292 93.8475 84.2515C95.3527 84.9501 96.7445 84.6232 97.9598 83.5977C99.4281 82.356 100.825 81.0326 102.278 79.775C117.042 67.0126 139.642 74.6738 143.614 93.795C143.783 94.6017 143.833 95.4453 143.833 96.2705C143.846 111.717 143.82 127.163 143.878 142.609C143.883 144.151 143.588 144.697 141.922 144.65L141.919 144.652Z" fill="#FFFBF2"/>
<path d="M60.7724 71.1699C60.7724 67.4659 59.4887 66.1609 55.8456 66.1583C48.3512 66.153 40.8594 66.153 33.365 66.1583C29.8063 66.1609 28.4725 67.479 28.4725 71.0064C28.4672 96.497 28.4672 121.988 28.4725 147.478C28.4725 150.995 29.809 152.297 33.3967 152.3C40.8252 152.305 48.2563 152.305 55.6848 152.3C59.5018 152.3 60.7724 151.04 60.7751 147.254C60.7777 134.573 60.7751 121.893 60.7751 109.212C60.7751 96.5313 60.7751 83.8506 60.7751 71.1699H60.7724ZM53.1093 142.925C53.1093 144.249 52.8009 144.67 51.4275 144.644C46.8803 144.554 42.3304 144.552 37.7831 144.644C36.3675 144.673 36.1277 144.172 36.1329 142.894C36.1804 131.618 36.1593 120.345 36.1593 109.07C36.1593 97.9233 36.1857 86.7769 36.1277 75.6305C36.1198 74.2201 36.4387 73.7772 37.9097 73.8115C42.391 73.9143 46.8776 73.8932 51.3616 73.822C52.6375 73.8009 53.1172 74.0514 53.1146 75.4697C53.0672 97.9549 53.0698 120.44 53.112 142.928L53.1093 142.925Z" fill="#FFFBF2"/>
<path d="M44.7054 27.7023C35.8086 27.6654 28.5092 34.8889 28.475 43.7654C28.4407 52.6656 35.661 59.9629 44.5393 59.9972C53.4387 60.0341 60.7328 52.8159 60.767 43.9341C60.804 35.0286 53.5916 27.7392 44.7054 27.7049V27.7023ZM44.4286 52.3044C39.8128 52.2121 36.1012 48.3447 36.1671 43.7047C36.233 39.0859 40.079 35.3476 44.7159 35.3951C49.3422 35.4425 53.0987 39.2599 53.0749 43.8972C53.0512 48.6004 49.1445 52.402 44.4286 52.3071V52.3044Z" fill="#FFFBF2"/>
</svg>
