<svg width="231" height="170" viewBox="0 0 231 170" fill="none" xmlns="http://www.w3.org/2000/svg">
<g clip-path="url(#clip0_105_136)">
<path d="M231 128.388C230.564 130.431 230.191 132.491 229.684 134.518C224.319 155.846 206.511 169.925 184.555 169.956C138.55 170.024 92.5414 170.017 46.5363 169.956C24.256 169.925 6.20442 155.5 1.15363 133.705C0.362018 130.292 0.0846132 126.693 0.0710813 123.179C-0.0168761 97.7276 -0.0168762 72.2757 0.0372515 46.8238C0.0778473 26.2922 11.9284 9.26443 31.3061 2.60242C36.181 0.928441 41.5972 0.159226 46.7663 0.138894C92.6226 -0.0474796 138.479 -0.0102048 184.335 0.0474017C208.324 0.0778992 227.127 16.5567 230.591 40.3685C230.652 40.7989 230.861 41.2055 231 41.6257V128.388ZM115.272 160.522C138.046 160.522 160.824 160.549 183.598 160.488C186.585 160.481 189.64 160.329 192.546 159.695C209.674 155.951 221.426 141.525 221.511 123.932C221.636 97.958 221.565 71.9809 221.511 46.0038C221.504 43.5403 221.254 41.0259 220.729 38.62C216.896 21.0805 202.404 9.51858 184.193 9.50502C138.418 9.47114 92.6395 9.4813 46.8645 9.52875C44.0295 9.52875 41.1303 9.73206 38.3732 10.3454C21.3263 14.1508 9.61108 28.4948 9.51974 45.9733C9.38442 72.025 9.46561 98.0732 9.51974 124.125C9.52313 126.514 9.7667 128.954 10.2674 131.285C14.0529 148.828 28.5625 160.468 46.7224 160.508C69.5744 160.559 92.423 160.522 115.275 160.522H115.272Z" fill="#FFFBF2"/>
<path d="M84.8587 87.355C84.8587 75.0882 84.8519 62.818 84.8587 50.5512C84.8621 44.8075 88.3026 42.8387 93.2722 45.7529C114.196 58.0231 135.116 70.3001 156.03 82.5838C160.851 85.4133 160.854 89.3407 156.033 92.1702C135.113 104.447 114.189 116.717 93.262 128.981C88.333 131.868 84.8587 129.872 84.8553 124.165C84.8485 111.899 84.8553 99.6285 84.8553 87.3617L84.8587 87.355ZM145.566 87.3787C128.371 77.2874 111.513 67.3926 94.4596 57.3861V117.341C111.537 107.331 128.347 97.4734 145.566 87.3787Z" fill="#FFFBF2"/>
</g>
<defs>
<clipPath id="clip0_105_136">
<rect width="231" height="170" fill="white"/>
</clipPath>
</defs>
</svg>
